<?xml version="1.0" encoding="UTF-8"?>
<!DOCTYPE svg PUBLIC "-//W3C//DTD SVG 1.1//EN" "http://www.w3.org/Graphics/SVG/1.1/DTD/svg11.dtd">
<svg xmlns="http://www.w3.org/2000/svg" version="1.1" width="350px" height="107px" style="shape-rendering:geometricPrecision; text-rendering:geometricPrecision; image-rendering:optimizeQuality; fill-rule:evenodd; clip-rule:evenodd" xmlns:xlink="http://www.w3.org/1999/xlink">
<g><path style="opacity:0.952" fill="#fe9de0" d="M 332.5,-0.5 C 335.5,-0.5 338.5,-0.5 341.5,-0.5C 344.141,1.80437 346.808,4.13771 349.5,6.5C 349.5,7.83333 349.5,9.16667 349.5,10.5C 336.232,22.2656 323.399,34.599 311,47.5C 310.03,49.2738 309.196,51.1072 308.5,53C 309.196,54.8928 310.03,56.7262 311,58.5C 323.399,71.401 336.232,83.7344 349.5,95.5C 349.5,96.8333 349.5,98.1667 349.5,99.5C 346.808,101.862 344.141,104.196 341.5,106.5C 338.5,106.5 335.5,106.5 332.5,106.5C 329.062,103.565 325.729,100.399 322.5,97C 228.833,96.6667 135.167,96.3333 41.5,96C 27.6319,81.9648 13.6319,68.1314 -0.5,54.5C -0.5,53.1667 -0.5,51.8333 -0.5,50.5C 13.6319,36.8686 27.6319,23.0352 41.5,9C 135.5,8.66667 229.5,8.33333 323.5,8C 326.396,4.93425 329.396,2.10092 332.5,-0.5 Z M 333.5,3.5 C 339.242,2.14261 342.742,4.14261 344,9.5C 331.667,21.8333 319.333,34.1667 307,46.5C 303.667,50.8333 303.667,55.1667 307,59.5C 319.333,71.8333 331.667,84.1667 344,96.5C 342.739,102.026 339.239,103.859 333.5,102C 318.667,87.1667 303.833,72.3333 289,57.5C 287.578,54.9699 287.245,52.3033 288,49.5C 303.368,34.2985 318.535,18.9652 333.5,3.5 Z M 43.5,11.5 C 135.501,11.3333 227.501,11.5 319.5,12C 308.971,22.8634 298.137,33.3634 287,43.5C 282.713,48.5692 282.046,53.9026 285,59.5C 296.167,70.6667 307.333,81.8333 318.5,93C 226.833,93.6667 135.167,93.6667 43.5,93C 30.682,79.3482 17.682,65.8482 4.5,52.5C 17.8867,39.1155 30.8867,25.4489 43.5,11.5 Z"/></g>
<g><path style="opacity:0.902" fill="#fe9edf" d="M 332.5,34.5 C 336.013,33.8757 338.847,34.8757 341,37.5C 341.667,47.8333 341.667,58.1667 341,68.5C 338.833,71.2868 335.999,72.1201 332.5,71C 329.333,67.8333 326.167,64.6667 323,61.5C 319.667,55.8333 319.667,50.1667 323,44.5C 326.371,41.2975 329.538,37.9641 332.5,34.5 Z M 334.5,38.5 C 335.5,38.5 336.5,38.5 337.5,38.5C 337.5,48.1667 337.5,57.8333 337.5,67.5C 333.019,65.5409 329.185,62.5409 326,58.5C 324,54.8333 324,51.1667 326,47.5C 329.038,44.6306 331.871,41.6306 334.5,38.5 Z"/></g>
</svg>
