<?xml version="1.0" encoding="UTF-8"?>
<!DOCTYPE svg PUBLIC "-//W3C//DTD SVG 1.1//EN" "http://www.w3.org/Graphics/SVG/1.1/DTD/svg11.dtd">
<svg xmlns="http://www.w3.org/2000/svg" version="1.1" width="350px" height="107px" style="shape-rendering:geometricPrecision; text-rendering:geometricPrecision; image-rendering:optimizeQuality; fill-rule:evenodd; clip-rule:evenodd" xmlns:xlink="http://www.w3.org/1999/xlink">
<g><path style="opacity:0.953" fill="#fe9de0" d="M 7.5,-0.5 C 10.5,-0.5 13.5,-0.5 16.5,-0.5C 19.6043,2.10092 22.6043,4.93425 25.5,8C 119.5,8.33333 213.5,8.66667 307.5,9C 321.368,23.0352 335.368,36.8686 349.5,50.5C 349.5,51.8333 349.5,53.1667 349.5,54.5C 335.368,68.1314 321.368,81.9648 307.5,96C 213.833,96.3333 120.167,96.6667 26.5,97C 23.2711,100.399 19.9378,103.565 16.5,106.5C 13.5,106.5 10.5,106.5 7.5,106.5C 4.8587,104.196 2.19204,101.862 -0.5,99.5C -0.5,98.1667 -0.5,96.8333 -0.5,95.5C 12.7679,83.7344 25.6012,71.401 38,58.5C 38.9704,56.7262 39.8037,54.8928 40.5,53C 39.8037,51.1072 38.9704,49.2738 38,47.5C 25.6012,34.599 12.7679,22.2656 -0.5,10.5C -0.5,9.16667 -0.5,7.83333 -0.5,6.5C 2.19204,4.13771 4.8587,1.80437 7.5,-0.5 Z M 8.5,3.5 C 10.8568,3.33669 13.1902,3.50335 15.5,4C 30.6667,19.1667 45.8333,34.3333 61,49.5C 61.755,52.3033 61.4217,54.9699 60,57.5C 45.1667,72.3333 30.3333,87.1667 15.5,102C 9.76129,103.859 6.26129,102.026 5,96.5C 17.3333,84.1667 29.6667,71.8333 42,59.5C 45.3333,55.1667 45.3333,50.8333 42,46.5C 29.6667,34.1667 17.3333,21.8333 5,9.5C 4.33333,8.83333 4.33333,8.16667 5,7.5C 6.37561,6.29493 7.54227,4.9616 8.5,3.5 Z M 29.5,12.5 C 121.332,11.3342 213.332,11.1676 305.5,12C 318.318,25.6518 331.318,39.1518 344.5,52.5C 331.318,65.8482 318.318,79.3482 305.5,93C 213.833,93.6667 122.167,93.6667 30.5,93C 41.6667,81.8333 52.8333,70.6667 64,59.5C 64.912,57.3415 65.7454,55.1748 66.5,53C 65.7454,50.8252 64.912,48.6585 64,46.5C 52.6318,34.9646 41.1318,23.6313 29.5,12.5 Z"/></g>
<g><path style="opacity:0.9" fill="#fe9edf" d="M 10.5,34.5 C 12.5273,34.3379 14.5273,34.5045 16.5,35C 33.2821,48.7771 32.2821,60.9437 13.5,71.5C 10.994,71.6648 9.16069,70.6648 8,68.5C 7.33333,58.1667 7.33333,47.8333 8,37.5C 8.69794,36.3094 9.53128,35.3094 10.5,34.5 Z M 11.5,38.5 C 27.5466,46.3353 28.5466,55.8353 14.5,67C 13.552,67.4828 12.552,67.6495 11.5,67.5C 11.5,57.8333 11.5,48.1667 11.5,38.5 Z"/></g>
</svg>
